Motion_kv06_l
version=1
nRows=12
nColumns=43
inDegrees=yes
endheader
time	pelvis_tilt	pelvis_list	pelvis_rotation	pelvis_tx	pelvis_ty	pelvis_tz	hip_flexion_r	hip_adduction_r	hip_rotation_r	knee_angle_r	ankle_angle_r	subtalar_angle_r	mtp_angle_r	hip_flexion_l	hip_adduction_l	hip_rotation_l	knee_angle_l	ankle_angle_l	subtalar_angle_l	mtp_angle_l	lumbar_extension	lumbar_bending	lumbar_rotation	neck_flexion	neck_lateral_bending	neck_rotation	arm_flex_r	arm_add_r	arm_rot_r	elbow_flex_r	pro_sup_r	wrist_flex_r	wrist_dev_r	hand_finger_flex_r	arm_flex_l	arm_add_l	arm_rot_l	elbow_flex_l	pro_sup_l	wrist_flex_l	wrist_dev_l	hand_finger_flex_l
      1.55250000	     -0.82222586	      5.47782216	     94.29896968	     -0.01749864	      0.60916254	      0.31121616	     65.68770369	    -11.55079705	      3.23215586	   -123.15657926	     17.27650952	     12.97397090	     35.18791433	     67.21712971	    -11.75409495	      5.39533529	   -119.89682832	     11.73659144	     38.31475271	     49.73083588	    -36.13216542	     -0.93157712	     -2.96596285	      7.18627367	      0.34918748	     -2.83055243	    130.16224638	    -38.94774830	     41.20427626	     65.77091514	    139.90781597	     12.61664244	     -1.52528325	    -11.92482116	    -69.51215275	   -141.49450170	   -135.18673043	     57.30982420	    116.00875520	    -39.07270595	     -7.87163767	     -8.88499716
      1.55500000	     -0.81824782	      5.38602398	     94.26985318	     -0.01760542	      0.61012037	      0.31110151	     65.65443226	    -11.51036230	      3.21012097	   -122.98071745	     17.26903155	     12.95355543	     35.18381653	     67.15750101	    -11.67207433	      5.38488492	   -119.72565543	     11.73733760	     38.27761071	     49.73917040	    -36.05193130	     -0.93397388	     -2.93508201	      7.23863825	      0.37269442	     -2.82242119	    130.12857915	    -38.90402233	     41.20165301	     65.74492591	    139.86581274	     12.61100677	     -1.50688446	    -11.92807779	    -69.61824195	   -141.47697446	   -135.15255233	     57.27780259	    116.00315470	    -39.03782123	     -7.83634048	     -8.87146856
      1.55750000	     -0.80471427	      5.29099810	     94.25857238	     -0.01764939	      0.61112625	      0.31104303	     65.61243281	    -11.46129570	      3.19165854	   -122.78285747	     17.26443429	     12.92492842	     35.17873291	     67.11014201	    -11.60600667	      5.35481787	   -119.54016487	     11.74363415	     38.23104550	     49.74735311	    -35.98260536	     -0.92887816	     -2.90598882	      7.25755783	      0.39055517	     -2.81276338	    130.08906203	    -38.88856774	     41.18645016	     65.75292090	    139.80964541	     12.59995799	     -1.49712235	    -11.93363651	    -69.72801306	   -141.45004337	   -135.13191274	     57.29591936	    116.00013199	    -39.01784842	     -7.80799848	     -8.85840137
      1.56000000	     -0.73204310	      5.10042501	     94.18055595	     -0.01762468	      0.61211533	      0.31075617	     65.63258991	    -11.30161858	      3.06794027	   -122.56755705	     17.29914860	     12.38948565	     35.12568998	     67.13888363	    -11.63590863	      5.25722387	   -119.40022594	     11.91709385	     37.50155114	     49.95804218	    -35.78435578	     -0.90685126	     -2.92489680	      7.19440278	      0.44893047	     -2.63672508	    129.64568667	    -38.75361684	     40.70601026	     65.88366207	    138.80910782	     12.35787158	     -1.16944958	    -12.05641895	    -70.21482237	   -141.21830313	   -135.66339755	     57.86993166	    115.99082084	    -38.88019399	     -7.29691376	     -8.61752200
      1.56250000	     -0.72535859	      5.00927229	     94.16005797	     -0.01766845	      0.61310573	      0.31072580	     65.59708668	    -11.26126709	      3.05328763	   -122.37495819	     17.28456484	     12.38763317	     35.11850718	     67.08696367	    -11.55511382	      5.25165976	   -119.21385395	     11.90575142	     37.48978975	     49.96245863	    -35.72299370	     -0.90883892	     -2.89223974	      7.20223148	      0.45218050	     -2.63287539	    129.61413373	    -38.74541269	     40.73517741	     65.90299278	    138.77883018	     12.36151417	     -1.17228444	    -12.05689945	    -70.31248415	   -141.18370891	   -135.61378525	     57.86761377	    116.01898433	    -38.85863241	     -7.29819602	     -8.59937118
      1.56500000	     -0.72176294	      4.91360450	     94.14759968	     -0.01770292	      0.61415666	      0.31074068	     65.55692738	    -11.20196450	      3.03064581	   -122.17580767	     17.27403798	     12.37852428	     35.11096239	     67.04259313	    -11.47476368	      5.23215835	   -119.02309485	     11.89843576	     37.46892692	     49.96515084	    -35.66838987	     -0.90734246	     -2.86221629	      7.20847771	      0.45912902	     -2.63021731	    129.57307674	    -38.74454411	     40.75121837	     65.93899037	    138.73664991	     12.36205852	     -1.18006611	    -12.05914042	    -70.42313268	   -141.14814104	   -135.58234186	     57.88336950	    116.03796687	    -38.85203912	     -7.29448017	     -8.58318998
      1.56750000	     -0.70502244	      4.80870781	     94.12307266	     -0.01783286	      0.61523981	      0.31075235	     65.51858765	    -11.14607527	      3.01788063	   -121.95410988	     17.26748581	     12.35175649	     35.10080559	     66.98940060	    -11.40033254	      5.21972556	   -118.80892707	     11.89304382	     37.42629727	     49.96772245	    -35.60886051	     -0.89791212	     -2.83505424	      7.21150630	      0.46746404	     -2.62766679	    129.50411466	    -38.75779251	     40.75314334	     66.00320893	    138.66345937	     12.35963422	     -1.19278749	    -12.06394808	    -70.55565118	   -141.10515401	   -135.57861422	     57.93414457	    116.05146509	    -38.86486189	     -7.28341727	     -8.56467201
      1.57000000	     -0.66612761	      4.66504366	     94.08742782	     -0.01769943	      0.61643265	      0.31047811	     65.47328560	    -11.03426605	      2.92210672	   -121.73065170	     17.27682503	     12.11864866	     35.04995293	     66.96108782	    -11.38101959	      5.17046237	   -118.62298432	     11.91302308	     37.12513164	     49.99830384	    -35.50312751	     -0.89625977	     -2.81636686	      7.14785556	      0.47740053	     -2.60619040	    129.19924047	    -38.89228675	     40.52611699	     66.39572243	    138.13034075	     12.30189590	     -1.20535807	    -12.11144230	    -70.98612298	   -140.93112484	   -135.93043874	     58.38781141	    116.05799969	    -39.07230819	     -7.15699970	     -8.46457928
      1.57250000	     -0.65592171	      4.56281584	     94.06731793	     -0.01773665	      0.61743383	      0.31058905	     65.46172672	    -10.98114000	      2.90110449	   -121.53156510	     17.26772845	     12.09822760	     35.03987080	     66.92432222	    -11.29479610	      5.16004906	   -118.42852912	     11.91196235	     37.09116640	     49.99792990	    -35.44985260	     -0.89455841	     -2.78246384	      7.20012699	      0.50229711	     -2.60391073	    129.15539311	    -38.83589477	     40.52551455	     66.36203662	    138.07610370	     12.30700623	     -1.18882252	    -12.11389409	    -71.09285278	   -140.93731533	   -135.91386995	     58.35129783	    116.05930867	    -39.05448800	     -7.12617279	     -8.43886140
      1.57500000	     -0.56231312	      4.26244278	     94.02492670	     -0.01775150	      0.61814545	      0.31064342	     65.66795167	    -10.84697125	      2.75468664	   -121.32025814	     17.18044285	     11.51650007	     34.82011859	     67.15675851	    -11.26635638	      5.11938047	   -118.29429922	     11.99256730	     36.37544077	     50.07022811	    -35.15153041	     -0.82178262	     -2.81278775	      7.11182252	      0.50022271	     -2.45664495	    128.74362364	    -38.54621989	     40.00641243	     66.31647003	    136.60770141	     12.29599590	     -0.68734237	    -12.21907217	    -71.61574892	   -140.84439567	   -136.58232334	     58.68125631	    116.33553581	    -39.00338535	     -6.73924003	     -7.77013596
      1.57750000	     -0.55254134	      4.16164074	     94.00836102	     -0.01771374	      0.61922565	      0.31073888	     65.64074019	    -10.78761231	      2.73636377	   -121.11359724	     17.17342138	     11.51844442	     34.81045704	     67.10188938	    -11.17307834	      5.11433119	   -118.07122070	     11.98279819	     36.36557017	     50.06746263	    -35.11094727	     -0.82612061	     -2.78591622	      7.14782782	      0.51417742	     -2.45867215	    128.68742796	    -38.53685092	     40.04578355	     66.35652593	    136.57576892	     12.29803503	     -0.69996691	    -12.22187741	    -71.72780529	   -140.81843424	   -136.55001017	     58.68301267	    116.34924667	    -39.00579084	     -6.73655203	     -7.75260982
      1.58000000	     -0.54691393	      4.05529023	     93.99081919	     -0.01772690	      0.62035899	      0.31087601	     65.60984368	    -10.73059096	      2.70147245	   -120.88690183	     17.16574688	     11.51057943	     34.79939465	     67.05957776	    -11.09079080	      5.09114003	   -117.85035639	     11.97601689	     36.34104476	     50.06337274	    -35.07987793	     -0.82863580	     -2.76290071	      7.18184635	      0.52912402	     -2.46029436	    128.62199268	    -38.53023661	     40.06025847	     66.41406822	    136.52158176	     12.29778620	     -0.71700542	    -12.22447053	    -71.85048577	   -140.79747833	   -136.53902683	     58.70866452	    116.35276109	    -39.02262682	     -6.73054895	     -7.73930730
